<?xml version="1.0" encoding="utf-8"?>
<!-- Generator: Adobe Illustrator 19.0.0, SVG Export Plug-In . SVG Version: 6.00 Build 0)  -->
<svg version="1.1" id="Layer_1" xmlns="http://www.w3.org/2000/svg" xmlns:xlink="http://www.w3.org/1999/xlink" x="0px" y="0px"
	 viewBox="0 0 400 400" style="enable-background:new 0 0 400 400;" xml:space="preserve">
<style type="text/css">
	.st0{fill:#F2B9D0;}
</style>
<g id="XMLID_4_">
	<path id="XMLID_42_" d="M209.9,247.4c-2.5-0.5-8.3-2.5-8.3-11.3v-3.6c7.9-6.8,19.9-12.2,17.7-24c-1.4-4.9-5.4-7.7-10-7.8l0,0
		c-3.5-0.1-6.9,1.5-9.1,4.2c-1.3-1.5-2.9-2.6-4.8-3.3c-3.4-1.3-7.5-0.6-10.4,1.7c-2.2,1.6-3.8,4-4.3,6.9
		c-0.6,12.1,10.9,14.9,17.9,22.3v3.7c0,8.8-5.8,10.8-8.3,11.3c-4.8,0.9-10.9-1.4-12.9-6.6l-2.8,1.1c2,5.3,7.5,8.7,13.4,8.7
		c0.9,0,1.8-0.1,2.8-0.3c3.5-0.7,7.3-2.8,9.3-7c2,4.2,5.7,6.4,9.3,7c0.9,0.2,1.9,0.3,2.8,0.3c5.9,0,11.4-3.4,13.4-8.7l-2.8-1.1
		C220.8,246.1,214.7,248.3,209.9,247.4z"/>
	<path id="XMLID_43_" d="M287.9,202.9c-18.4-11.7-42.2-12.2-61.2-1.5c-2,1.1-0.2,4.1,1.8,3c17.9-10.1,40.3-9.5,57.6,1.5
		C288,207.1,289.8,204.1,287.9,202.9z"/>
	<path id="XMLID_45_" d="M279.6,224.5c-16.1-10.4-35.5-14.1-54.4-10.4c-2.2,0.4-1.3,3.8,0.9,3.4c17.9-3.5,36.3,0.1,51.7,10
		C279.7,228.7,281.5,225.7,279.6,224.5z"/>
	<path id="XMLID_46_" d="M223.7,225.6c-2.2-0.5-3.1,2.9-0.9,3.4c14,3.3,26.3,10.8,35.7,21.7c1.5,1.7,3.9-0.8,2.5-2.5
		C251.1,236.9,238.2,229.1,223.7,225.6z"/>
	<path id="XMLID_47_" d="M171.7,204.4c2,1.1,3.7-1.9,1.8-3c-19-10.7-42.8-10.2-61.2,1.5c-1.9,1.2-0.1,4.2,1.8,3
		C131.5,194.9,153.8,194.3,171.7,204.4z"/>
	<path id="XMLID_48_" d="M174,217.5c2.2,0.4,3.1-2.9,0.9-3.4c-18.8-3.7-38.2-0.1-54.4,10.4c-1.9,1.2-0.1,4.2,1.8,3
		C137.7,217.6,156.1,213.9,174,217.5z"/>
	<path id="XMLID_49_" d="M176.5,225.6c-14.6,3.5-27.5,11.3-37.2,22.6c-1.5,1.7,1,4.2,2.5,2.5c9.4-10.9,21.7-18.4,35.7-21.7
		C179.6,228.5,178.7,225.1,176.5,225.6z"/>
	<path id="XMLID_24_" class="st0" d="M214.5,210.9c-1.1-3.6-4.1-5.8-7.5-5.9l0,0c-2.6-0.1-5.2,1.1-6.8,3.1c-0.9-1.1-2.2-2-3.6-2.5
		c-2.6-1-5.6-0.4-7.8,1.2c-1.6,1.2-2.8,3-3.2,5.1c-0.3,4.9,2.2,7.8,5.3,10.3l0,0c0,0,0,0,0,0c0.3,0.3,0.7,0.5,1,0.8
		c2.9,2.3,7.2,6,8,6.8C205.8,224.3,216.3,220.3,214.5,210.9z"/>
	<path id="XMLID_20_" d="M195.8,156.9c-0.2,0.1-0.5,0.1-0.8,0.2c-0.3,0-0.7,0.1-1.1,0.1c-0.4,0-0.8,0.1-1.3,0.1c-0.4,0-0.9,0-1.4,0
		c-0.5,0-1-0.1-1.5-0.1c-0.5-0.1-1-0.1-1.5-0.3c-0.5-0.1-1-0.2-1.5-0.4c-0.5-0.1-0.9-0.3-1.4-0.5c-0.2-0.1-0.3-0.1-0.4-0.2
		c-0.5-0.9-1.1-1.8-1.7-2.6c0.1,0,0.2,0,0.3,0c0.5,0,1.1-0.1,1.7-0.2c0.5-0.1,1.1-0.2,1.6-0.3c0.5-0.1,1-0.3,1.5-0.4
		c0.5-0.2,1-0.3,1.4-0.5c0.4-0.2,0.8-0.4,1.2-0.6c0.4-0.2,0.7-0.4,1-0.5c0.3-0.2,0.5-0.3,0.7-0.5c0.4-0.3,0.6-0.4,0.6-0.4
		s-0.2,0.1-0.7,0.3c-0.2,0.1-0.5,0.2-0.8,0.3c-0.3,0.1-0.6,0.2-1,0.3c-0.4,0.1-0.8,0.2-1.2,0.3c-0.4,0.1-0.9,0.2-1.4,0.2
		c-0.5,0.1-1,0.1-1.5,0.1c-0.5,0-1,0-1.5,0c-0.5,0-1-0.1-1.5-0.1c-0.5-0.1-1-0.1-1.4-0.2c-0.5-0.1-0.9-0.2-1.3-0.3
		c-0.1,0-0.2,0-0.2-0.1c-1.7-1.2-3.6-1.9-5.6-1.9c-6.8,0-12.4,7.6-12.4,17.1c0,9.4,5.5,17.1,12.4,17.1s12.4-7.6,12.4-17.1
		c0-2.7-0.5-5.2-1.3-7.5c0.1,0,0.2,0,0.3,0c0.5,0.1,1.1,0.1,1.7,0.1c0.6,0,1.1,0,1.7,0c0.5-0.1,1.1-0.1,1.6-0.2
		c0.5-0.1,1-0.2,1.5-0.3c0.5-0.1,0.9-0.2,1.3-0.3c0.4-0.1,0.7-0.3,1-0.4c0.3-0.1,0.6-0.2,0.8-0.3c0.4-0.2,0.7-0.3,0.7-0.3
		S196.3,156.8,195.8,156.9z M176.8,165.9c-1.8,0-3.3-2.1-3.3-4.7c0-2.6,1.5-4.7,3.3-4.7s3.3,2.1,3.3,4.7
		C180.1,163.7,178.6,165.9,176.8,165.9z"/>
	<path id="XMLID_18_" d="M243.9,156.9c-0.2,0.1-0.5,0.1-0.8,0.2c-0.3,0-0.7,0.1-1.1,0.1c-0.4,0-0.8,0.1-1.3,0.1c-0.4,0-0.9,0-1.4,0
		c-0.5,0-1-0.1-1.5-0.1c-0.5-0.1-1-0.1-1.5-0.3c-0.5-0.1-1-0.2-1.5-0.4c-0.5-0.1-0.9-0.3-1.4-0.5c-0.2-0.1-0.3-0.1-0.4-0.2
		c-0.5-0.9-1.1-1.8-1.7-2.6c0.1,0,0.2,0,0.3,0c0.5,0,1.1-0.1,1.7-0.2c0.5-0.1,1.1-0.2,1.6-0.3c0.5-0.1,1-0.3,1.5-0.4
		c0.5-0.2,1-0.3,1.4-0.5c0.4-0.2,0.8-0.4,1.2-0.6c0.4-0.2,0.7-0.4,1-0.5c0.3-0.2,0.5-0.3,0.7-0.5c0.4-0.3,0.6-0.4,0.6-0.4
		s-0.2,0.1-0.7,0.3c-0.2,0.1-0.5,0.2-0.8,0.3c-0.3,0.1-0.6,0.2-1,0.3c-0.4,0.1-0.8,0.2-1.2,0.3c-0.4,0.1-0.9,0.2-1.4,0.2
		c-0.5,0.1-1,0.1-1.5,0.1c-0.5,0-1,0-1.5,0c-0.5,0-1-0.1-1.5-0.1c-0.5-0.1-1-0.1-1.4-0.2c-0.5-0.1-0.9-0.2-1.3-0.3
		c-0.1,0-0.2,0-0.2-0.1c-1.7-1.2-3.6-1.9-5.6-1.9c-6.8,0-12.4,7.6-12.4,17.1c0,9.4,5.5,17.1,12.4,17.1c6.8,0,12.4-7.6,12.4-17.1
		c0-2.7-0.5-5.2-1.3-7.5c0.1,0,0.2,0,0.3,0c0.5,0.1,1.1,0.1,1.7,0.1c0.6,0,1.1,0,1.7,0c0.5-0.1,1.1-0.1,1.6-0.2
		c0.5-0.1,1-0.2,1.5-0.3c0.5-0.1,0.9-0.2,1.3-0.3c0.4-0.1,0.7-0.3,1-0.4c0.3-0.1,0.6-0.2,0.8-0.3c0.4-0.2,0.7-0.3,0.7-0.3
		S244.4,156.8,243.9,156.9z M224.9,165.9c-1.8,0-3.3-2.1-3.3-4.7c0-2.6,1.5-4.7,3.3-4.7c1.8,0,3.3,2.1,3.3,4.7
		C228.2,163.7,226.7,165.9,224.9,165.9z"/>
</g>
</svg>
